<?xml version="1.0" encoding="utf-8"?>
<!-- Generator: Adobe Illustrator 19.0.0, SVG Export Plug-In . SVG Version: 6.00 Build 0)  -->
<svg version="1.1" id="Layer_1" xmlns="http://www.w3.org/2000/svg" xmlns:xlink="http://www.w3.org/1999/xlink" x="0px" y="0px"
	 viewBox="0 0 792 612" style="enable-background:new 0 0 792 612;" xml:space="preserve">
<style type="text/css">
	.st0{fill:#DDB2B1;}
	.st1{fill:none;stroke:#DDB2B1;stroke-miterlimit:10;}
</style>
<g>
	<g id="XMLID_168_">
		<g id="XMLID_140_">
			<path id="XMLID_145_" class="st0" d="M28.1,284.9c-5.2,6.1-7,13.5-8.5,21.1c-1.9,9.7-4.1,19.2-6.9,28.6c-0.6,1.9,2.3,2.6,2.9,0.8
				c2.5-8.4,4.6-16.9,6.3-25.5c1.6-8.1,2.9-16.5,8.4-23C31.4,285.6,29.3,283.5,28.1,284.9L28.1,284.9z"/>
		</g>
	</g>
	<g id="XMLID_167_">
		<g id="XMLID_134_">
			<path id="XMLID_139_" class="st0" d="M25.1,293.2c7.7-0.6,15.2,2.5,19.8,8.8c8.5,11.5-15.6,11.6-21.1,10.3
				c-1.9-0.4-2.7,2.5-0.8,2.9c6.2,1.4,12.6,1.4,18.6-0.6c3.9-1.3,9.2-3.5,8.5-8.5c-0.6-4.7-5.2-9.2-8.9-11.7
				c-4.8-3.3-10.4-4.7-16.2-4.2C23.2,290.3,23.2,293.3,25.1,293.2L25.1,293.2z"/>
		</g>
	</g>
	<g id="XMLID_166_">
		<g id="XMLID_128_">
			<path id="XMLID_133_" class="st0" d="M77.5,288.6c-3.5,4.8-7.1,9.6-10.6,14.4c-1.6,2.1-3.1,4.3-4.7,6.4c-1,1.3-1.9,2.7-2.9,4
				c-0.2,0.3-4.2,4.9-4.5,3.6c-0.4-1.9-3.3-1.1-2.9,0.8c1,4.5,6.3,1.7,8.2-0.5c7.4-8.3,13.4-18.3,20-27.3
				C81.3,288.6,78.7,287.1,77.5,288.6L77.5,288.6z"/>
		</g>
	</g>
	<g id="XMLID_165_">
		<g id="XMLID_122_">
			<path id="XMLID_127_" class="st0" d="M83.9,293.1c3.9,0.6,14.3,2.6,11.5,9c-1.3,3.1-6.5,2.8-9.2,2.6c-3.7-0.3-7.2-1.4-10.6-3.1
				c-1.4-0.7-3.2,1.2-1.8,2.4c9.8,8.7,19.6,17.5,29.3,26.2c1.4,1.3,3.6-0.8,2.1-2.1c-9.8-8.7-19.6-17.5-29.3-26.2
				c-0.6,0.8-1.2,1.6-1.8,2.4c5.6,2.8,19.9,7.4,23.7-0.3c4.3-8.7-6.9-12.8-13.2-13.7C82.8,289.9,82,292.8,83.9,293.1L83.9,293.1z"/>
		</g>
	</g>
	<g id="XMLID_164_">
		<g id="XMLID_116_">
			<path id="XMLID_121_" class="st0" d="M145.9,295.8c-11.1-6.2-26.1-1.9-32.5,9c-3.2,5.4-4.4,13.1-0.4,18.4
				c3.4,4.5,9.9,5.9,14.5,2.5c1.5-1.1,0-3.7-1.5-2.6c-6.1,4.5-12.4-1.8-12.5-8.1c0-5,2.5-9.9,6.2-13.2c6.7-6.1,16.7-7.9,24.7-3.4
				C146,299.3,147.6,296.7,145.9,295.8L145.9,295.8z"/>
		</g>
	</g>
	<g id="XMLID_163_">
		<g id="XMLID_110_">
			<path id="XMLID_115_" class="st0" d="M114.9,304.6c7.9,1,15.9,1.9,23.8,2.9c1.9,0.2,1.9-2.8,0-3c-7.9-1-15.9-1.9-23.8-2.9
				C113,301.4,113,304.4,114.9,304.6L114.9,304.6z"/>
		</g>
	</g>
	<g id="XMLID_162_">
		<g id="XMLID_104_">
			<path id="XMLID_109_" class="st0" d="M172,294.1c-12.8,2.1-19.8,31.9-2.9,28.1c6.7-1.5,14.8-8,15.9-15.1c1-6.1-5.6-12.8-11.5-9
				c-1.6,1-0.1,3.6,1.5,2.6c3-2,6.5,1,7,4.1c0.5,3.2-1.8,6.2-3.9,8.4c-2.8,2.9-7.3,6.4-11.7,6.3c-6.5-0.2-4.6-8.8-3.1-13
				c1.6-4.6,4.3-8.7,9.4-9.6C174.7,296.7,173.9,293.8,172,294.1L172,294.1z"/>
		</g>
	</g>
	<g id="XMLID_161_">
		<g id="XMLID_98_">
			<path id="XMLID_103_" class="st0" d="M216,299.4c-2.1,4-4.3,8-6.6,11.9c-1.1,1.8-2.2,3.6-3.4,5.4c-1.6,2.4-2.7,4.8-4.1,7.3
				c1-1.7-1.6-3.2-2.6-1.5c-0.7,1.2-0.7,2.5,0.5,3.4c1.7,1.3,3.3-0.1,4.5-1.3c6-6.5,10.3-15.8,14.3-23.6
				C219.4,299.2,216.8,297.7,216,299.4L216,299.4z"/>
		</g>
	</g>
	<g id="XMLID_160_">
		<g id="XMLID_84_">
			<path id="XMLID_97_" class="st0" d="M212.6,294.7c3.9-2.8,9.5-3.8,12.7,0.6c3.7,5.1-2,12.9-7.4,8.1c-1.4-1.3-3.5,0.8-2.1,2.1
				c8.1,8,15.9,16.1,23.5,24.5c1.3,1.4,3.4-0.7,2.1-2.1c-7.6-8.4-15.5-16.6-23.5-24.5c-0.7,0.7-1.4,1.4-2.1,2.1
				c5.7,5.1,14.7,0.6,13.9-7.1c-1-9.5-12-11.1-18.6-6.4C209.5,293.2,211,295.8,212.6,294.7L212.6,294.7z"/>
		</g>
	</g>
	<g id="XMLID_159_">
		<g id="XMLID_78_">
			<path id="XMLID_82_" class="st0" d="M257.1,295.5c-6.2,8.2-11.1,17-14.8,26.5c1,0.1,2,0.3,2.9,0.4c0.1-1.3,0.2-2.7,0.3-4
				c0.1-1.9-2.9-1.9-3,0c-0.1,1.3-0.2,2.7-0.3,4c-0.1,1.8,2.4,1.9,2.9,0.4c3.7-9.3,8.5-17.9,14.5-25.8
				C260.8,295.5,258.2,294,257.1,295.5L257.1,295.5z"/>
		</g>
	</g>
	<g id="XMLID_158_">
		<g id="XMLID_71_">
			<path id="XMLID_76_" class="st0" d="M256,298.8c4.5-2.5,10.1-3.9,15-1.5c4.2,2.1,7,6.5,5.9,11.3c-0.9,3.8-4.2,6.7-7.4,8.7
				c-2,1.3-13.8,7.3-13.3,0.9c0.2-1.9-2.8-1.9-3,0c-0.6,7.4,8.2,6,12.7,4.2c5.5-2.2,11.4-6,13.5-11.9c1.9-5.3-0.2-11-4.6-14.4
				c-6.1-4.6-14-3.4-20.3,0C252.8,297.1,254.3,299.7,256,298.8L256,298.8z"/>
		</g>
	</g>
	<g id="XMLID_157_">
		<g id="XMLID_65_">
			<path id="XMLID_69_" class="st0" d="M325.3,294.7c4.8-0.5,9.6-1,14.4-1.6c1.9-0.2,2-3.1,0-3c-1.5,0-3,0.1-4.5,0.1
				c-1.9,0.1-1.9,3.1,0,3c1.5,0,3-0.1,4.5-0.1c0-1,0-2,0-3c-4.8,0.5-9.6,1-14.4,1.6C323.4,291.9,323.4,294.9,325.3,294.7
				L325.3,294.7z"/>
		</g>
	</g>
	<g id="XMLID_156_">
		<g id="XMLID_59_">
			<path id="XMLID_63_" class="st0" d="M324.3,292.1c-4,3.9-7.6,8.2-10.7,12.8c-2.5,3.7-6.6,9.1-5.8,14c1.2,6.9,9.9,6.8,15.3,6.1
				c1.9-0.3,1.1-3.2-0.8-2.9c-2.5,0.3-5.5,0.6-7.9-0.3c-5.7-2-2.6-8.1-0.5-11.8c3.4-5.8,7.7-11.1,12.5-15.8
				C327.8,292.8,325.6,290.7,324.3,292.1L324.3,292.1z"/>
		</g>
	</g>
	<g id="XMLID_155_">
		<g id="XMLID_53_">
			<path id="XMLID_57_" class="st0" d="M307.1,307.2c8.9-0.5,17.8-1.1,26.6-1.6c1.9-0.1,1.9-3.1,0-3c-8.9,0.5-17.8,1.1-26.6,1.6
				C305.2,304.3,305.2,307.3,307.1,307.2L307.1,307.2z"/>
		</g>
	</g>
	<g id="XMLID_154_">
		<g id="XMLID_47_">
			<path id="XMLID_51_" class="st0" d="M356.7,294.3c-3.3,10.1-7.7,19.7-13.1,28.9c-1,1.7,1.6,3.2,2.6,1.5
				c5.6-9.4,10-19.2,13.4-29.6C360.2,293.3,357.3,292.5,356.7,294.3L356.7,294.3z"/>
		</g>
	</g>
	<g id="XMLID_153_">
		<g id="XMLID_41_">
			<path id="XMLID_45_" class="st0" d="M358.3,296.3c4.9-4.4,15.7-12.7,20.7-3.5c4.1,7.6-13.5,13.7-18.5,15
				c-1.1,0.3-2.2,0.6-3.3,0.7c-0.5-1.9-0.3-2.1,0.5-0.8c1.1,0.9,1.7,2.7,2.5,4c1.4,2.4,3,4.6,4.8,6.7c4,4.7,8.9,8.4,14.3,11.3
				c1.7,0.9,3.2-1.7,1.5-2.6c-6.8-3.6-12.5-8.5-16.8-14.9c-2.1-3.2-4.2-9.2-8.8-9.8c-3.5-0.5-5.4,3-4,6c2,4.3,7.3,3.2,10.9,2.1
				c7.1-2.1,25.5-8.7,19.5-19.1c-6.3-11-18.9-3-25.4,2.9C354.8,295.5,356.9,297.6,358.3,296.3L358.3,296.3z"/>
		</g>
	</g>
</g>
<g>
	<g id="XMLID_152_">
		<g id="XMLID_35_">
			<path id="XMLID_39_" class="st0" d="M621.8,295.9c5.5,0.8,17.1-4.3,20.6,1.6c2.4,4.1-3.5,11.5-5.5,15.1c-1.6,2.8-4.1,5.8-4.8,8.9
				c-2.6,11.1,23.4,2.1,27.1,0.5c1.8-0.8,0.2-3.4-1.5-2.6c-3.7,1.6-7.6,2.9-11.6,3.6c-1.7,0.3-4.8,1.1-6.7,0.8
				c-2,0.6-3.3-0.4-3.8-2.8c0.3-0.6,0.7-1.2,1-1.7c0.9-3.4,4.2-7.3,5.9-10.4c1.4-2.5,3.1-5.1,3.5-8c0.5-3.9-1.6-6.9-5.2-8.3
				c-6-2.4-12,1.2-18.1,0.4C620.7,292.7,619.9,295.6,621.8,295.9L621.8,295.9z"/>
		</g>
	</g>
	<g id="XMLID_151_">
		<g id="XMLID_29_">
			<path id="XMLID_33_" class="st0" d="M672.6,290.3c-0.2,9.9-1.5,19.6-3.7,29.2c-0.4,1.9,2.4,2.7,2.9,0.8c2.3-9.9,3.6-19.8,3.9-30
				C675.6,288.3,672.6,288.3,672.6,290.3L672.6,290.3z"/>
		</g>
	</g>
	<g id="XMLID_150_">
		<g id="XMLID_26_">
			<path id="XMLID_89_" class="st0" d="M690.6,322.8c2.5-11.2,7.3-21.5,14.4-30.6c-0.8-0.1-1.6-0.2-2.4-0.3c4.8,6.9,8.8,14.2,12,22
				c0.3,0.8,1.3,1.5,2.2,0.9c9.8-7.3,17.8-16.4,23.6-27.1c0.9-1.7-1.7-3.2-2.6-1.5c-5.6,10.3-13.1,19.1-22.5,26
				c0.7,0.3,1.5,0.6,2.2,0.9c-3.3-8-7.4-15.5-12.3-22.7c-0.5-0.7-1.7-1.1-2.4-0.3c-7.4,9.5-12.5,20.2-15.1,31.9
				C687.3,323.9,690.2,324.7,690.6,322.8L690.6,322.8z"/>
		</g>
	</g>
	<g id="XMLID_149_">
		<g id="XMLID_90_">
			<path id="XMLID_94_" class="st0" d="M773.3,284.6c-11.9,2.5-25.2,10.5-26.7,23.6c-1.8,15.7,16.9,16.5,27.8,12.4
				c1.8-0.7,1-3.6-0.8-2.9c-5.6,2.1-11.9,2.8-17.8,1.1c-7.3-2.2-7.5-9.8-4.7-15.7c4.1-8.8,13.9-13.8,23-15.7
				C776,287.1,775.2,284.2,773.3,284.6L773.3,284.6z"/>
		</g>
	</g>
	<g id="XMLID_143_">
		<g id="XMLID_95_">
			<path id="XMLID_119_" class="st0" d="M763.9,301.5c-8.9,1.2-17.8,2.4-26.7,3.6c-1.9,0.3-1.9,3.3,0,3c8.9-1.2,17.8-2.4,26.7-3.6
				C765.8,304.2,765.8,301.2,763.9,301.5L763.9,301.5z"/>
		</g>
	</g>
</g>
<g>
	<g id="XMLID_242_">
		<path id="XMLID_251_" class="st1" d="M416.3,304.3c0.2-2,1.4-4.1,4.6-4.1H432c0.1-4.4,1.2-10.1,3-13.8h-16.4c0.5-3,3-6.6,7-6.6
			h25.2c-2.5,2.5-4.3,6.2-5.2,9.7c-0.8,3.2-1.2,7.1-1.7,10.7c-0.4,3.6-2.5,6.1-6.9,6.1h-8.5c-0.6,5.4-1.7,12-4.8,16.9
			c4.6,0.4,11.4,0.3,17.5-1.7c0.3,3.9-2,6.8-6.3,7.9c-6.5,1.5-18.7,1.5-25.8-0.1C413.7,321.5,415.4,313,416.3,304.3z M450.7,336.1
			c5.5-2.6,8.2-10.3,10.2-17.9c1.1-4.4,1.5-8.8,1.9-13.2h-4.3c-0.3,4.4-0.8,8.3-2.5,14.2c-2.4,8.7-8.1,16.8-20.5,16.9
			c6.2-2.8,8.1-9.9,9.7-16.6c2.1-8.2,2.2-17.7,3.6-26c0.8-6.1,5.1-15.9,17.5-16.8c-4.4,4.1-6.6,14-7.2,19.3
			c-0.1,0.6-0.1,1.3-0.2,1.9h4.4c0.2-1.4,0.4-2.8,0.6-4.3c1-6.1,5.3-16.3,17.5-17.9c-4.3,4.3-6.5,15-7.2,20.3
			c-1,9.5-0.1,12.9-2.6,22.2C469.3,327.3,462.7,335.5,450.7,336.1z"/>
		<path id="XMLID_247_" class="st1" d="M518.5,295c-1.8,10.1-8.8,17.3-21.7,17.3c-13.4,0-17.1-7.2-15.3-17.3
			c2.2-12.4,13.5-20.1,27.7-16.4c-7.3,0.5-13.8,6-15.7,16.7c-1.4,8-0.2,11.7,4.3,11.7c4.3,0,7.1-4,8.4-11.7c1.2-7.2,1.2-13-2.8-14.4
			C513.6,278.5,520.6,283.3,518.5,295z M486,314.6c3.4,1.7,9.2,2.3,14.5,2.1l-1.9,11c2.4,0.6,4.4,0.9,7.5,0.9
			c7.2,0,17.9-0.7,26.7-2.9c-0.1,3.5-1.2,5.3-6.3,6.6c-7,1.7-20,1.9-24.7,1.9c-6.8,0-12.8-0.8-18.8-2.3L486,314.6z M514.4,324.2
			c5.3-2.9,7-8.6,8.2-13.8c2.6-10.3,1.5-14.1,2.7-20.9c1.2-7,6.4-12.2,18.3-13.6c-3.9,3.4-5.6,9.3-6.3,15.2c-1,8.2-0.8,13.9-2.7,20
			C532.5,317.7,527.3,323.8,514.4,324.2z"/>
		<path id="XMLID_243_" class="st1" d="M582.5,286.2c-5.3,10.4-18.6,21-34.6,20.4c-2.6-0.1-4.9-1-5.7-2.4
			c15-3.9,23.6-12.8,26.6-19.1h-20.6c0.5-3,2.8-5.6,6.7-5.6H588C585.7,281.2,583.5,284.1,582.5,286.2z M597.4,327.7
			c-0.2,3.6-1.3,4.8-6.4,5.8c-6.4,1.3-17.2,1.2-23.5,1.2c-6.4,0-14-0.5-20.2-1.5l1.9-11.2c0.4-2,0.8-2.4,3.2-2.4h29.8l0.7-4.2h-33.3
			c0.5-2.6,2.1-5,5.8-5h38.9c4.7,0,4.8,1.5,4.3,4.6c-0.4,2.1-1.4,6.8-2.3,9.4h-31.8l-0.8,4.6c2.8,0.4,4.7,0.5,7.9,0.5
			C579.9,329.6,587,329.5,597.4,327.7z M583.7,308.6c4.4-2.6,5.2-6.4,5.7-9.8c0.2-0.9,0.3-1.7,0.3-2.5h-12.1
			c0.8-4.8,4.1-6.9,7.6-6.9h5c0.1-1.3,0.5-2.7,1.1-4.3c1.4-4,6.4-8.6,17.4-9.3c-3.9,2.9-5.2,7-5.7,10.1c-1.4,7.3-0.6,8.8-1.5,12.6
			C600.2,304.8,594.7,309.2,583.7,308.6z"/>
	</g>
</g>
</svg>
