<?xml version="1.0" encoding="utf-8"?>
<!-- Generator: Adobe Illustrator 19.0.0, SVG Export Plug-In . SVG Version: 6.00 Build 0)  -->
<svg version="1.1" id="Layer_1" xmlns="http://www.w3.org/2000/svg" xmlns:xlink="http://www.w3.org/1999/xlink" x="0px" y="0px"
	 viewBox="0 0 792 612" style="enable-background:new 0 0 792 612;" xml:space="preserve">
<style type="text/css">
	.st0{fill:#DDB2B1;stroke:#DDB2B1;stroke-miterlimit:10;}
</style>
<g id="XMLID_7_">
	<g id="XMLID_94_">
		<path id="XMLID_103_" class="st0" d="M48,300.6c0.7-7.6,5.1-15.4,17.3-15.4h42.2c0.5-16.8,4.4-38.3,11.2-52.1H56.7
			c2-11.4,11.2-24.9,26.3-24.9h95.3c-9.5,9.5-16.1,23.4-19.7,36.6c-3.2,11.9-4.6,26.8-6.3,40.4c-1.5,13.6-9.5,22.9-26.1,22.9H94
			c-2.4,20.5-6.3,45.3-18,64.1c17.3,1.5,43.1,1.2,66.3-6.3c1,14.9-7.6,25.8-23.9,29.7c-24.6,5.9-70.7,5.9-97.5-0.5
			C38.5,365.4,44.6,333.5,48,300.6z M178.3,420.7c21-9.7,31.2-39,38.5-67.5c4.1-16.6,5.9-33.1,7.3-49.9h-16.1
			c-1.2,16.8-3.2,31.4-9.3,53.6c-9.3,32.9-30.7,63.4-77.5,63.8c23.4-10.5,30.5-37.3,36.8-62.6c8-31.2,8.3-66.8,13.7-98.4
			c3.2-22.9,19.2-60.2,66.3-63.4c-16.6,15.6-24.9,52.9-27.3,73.1c-0.2,2.4-0.5,4.9-0.7,7.1h16.8c0.7-5.4,1.5-10.7,2.4-16.3
			c3.7-23.1,20-61.6,66.3-67.5c-16.1,16.1-24.6,56.5-27.3,76.8c-3.9,36.1-0.5,48.7-9.7,83.8C248.5,387.6,223.4,418.5,178.3,420.7z"
			/>
		<path id="XMLID_99_" class="st0" d="M434.6,265.3c-6.8,38.3-33.1,65.5-81.9,65.5c-50.7,0-64.8-27.3-58-65.5
			c8.3-47,50.9-76,104.8-61.9c-27.5,1.7-52.1,22.7-59.2,63.1c-5.4,30.2-0.7,44.3,16.1,44.3c16.1,0,26.8-15.1,31.9-44.3
			c4.6-27.3,4.6-49-10.5-54.3C415.9,202.9,442.4,221.2,434.6,265.3z M311.6,339.6c12.9,6.6,34.8,8.8,54.8,7.8l-7.3,41.4
			c9.3,2.4,16.6,3.4,28.3,3.4c27,0,67.7-2.7,100.9-11c-0.2,13.4-4.6,20-23.9,25.1c-26.6,6.6-75.5,7.1-93.3,7.1
			c-25.8,0-48.5-2.9-70.9-8.5L311.6,339.6z M419,375.9c20.2-11,26.3-32.7,31.2-52.1c10-39,5.6-53.4,10.2-79.2
			c4.6-26.6,24.1-46.3,69.2-51.4c-14.9,12.7-21.2,35.1-23.9,57.5c-3.7,31.2-2.9,52.4-10.2,75.8C487.5,351.3,467.8,374.2,419,375.9z"
			/>
		<path id="XMLID_95_" class="st0" d="M676.3,232.1c-20,39.5-70.2,79.4-130.8,77.2c-10-0.2-18.5-3.9-21.4-9
			c56.5-14.9,89.2-48.2,100.4-72.1h-77.7c2-11.5,10.5-21.2,25.3-21.2h125.2C688.5,213.4,680.4,224.1,676.3,232.1z M732.8,389
			c-0.7,13.6-4.9,18.3-24.4,21.9c-24.1,4.9-65.1,4.6-88.7,4.6c-24.4,0-52.9-1.7-76.5-5.6l7.3-42.2c1.5-7.6,3.2-9,11.9-9h112.6
			l2.7-15.8h-126c2-10,8-19,21.9-19h147.2c17.8,0,18.3,5.9,16.3,17.5c-1.5,7.8-5.4,25.6-8.8,35.6H608.3l-3.2,17.3
			c10.5,1.5,17.8,2,30,2C666.6,396.3,693.4,395.9,732.8,389z M680.9,316.9c16.6-9.7,19.5-24.4,21.7-37c0.7-3.4,1-6.3,1.2-9.5h-45.6
			c2.9-18.3,15.4-26.1,28.8-26.1h19c0.5-4.9,2-10.2,4.1-16.3c5.4-15.1,24.1-32.4,65.8-35.3c-14.6,11-19.5,26.6-21.7,38
			c-5.4,27.5-2.2,33.1-5.6,47.5C743.3,302.5,722.6,319.1,680.9,316.9z"/>
	</g>
</g>
</svg>
